<mxfile host="65bd71144e">
    <diagram id="UPTW6S9dqHJcLNoozvrJ" name="main">
        <mxGraphModel dx="729" dy="568" grid="1" gridSize="10" guides="1" tooltips="1" connect="1" arrows="1" fold="1" page="1" pageScale="1" pageWidth="850" pageHeight="1100" math="0" shadow="0">
            <root>
                <mxCell id="0"/>
                <mxCell id="1" parent="0"/>
                <mxCell id="bFVvXtpgS0MSezCc4s9v-5" value="" style="edgeStyle=none;html=1;" parent="1" source="2" target="bFVvXtpgS0MSezCc4s9v-4" edge="1">
                    <mxGeometry relative="1" as="geometry"/>
                </mxCell>
                <mxCell id="2" value="start" style="ellipse;whiteSpace=wrap;html=1;" parent="1" vertex="1">
                    <mxGeometry x="232.5" y="20" width="40" height="20" as="geometry"/>
                </mxCell>
                <mxCell id="c0LL561WGBZYWOj5mWlu-5" value="" style="edgeStyle=none;html=1;" parent="1" source="3" target="c0LL561WGBZYWOj5mWlu-4" edge="1">
                    <mxGeometry relative="1" as="geometry"/>
                </mxCell>
                <mxCell id="3" value="read input and store in char[i][j]&amp;nbsp;&lt;font face=&quot;Consolas, Courier New, monospace&quot; color=&quot;#9cdcfe&quot;&gt;&lt;span style=&quot;font-size: 14px; background-color: rgb(31, 31, 31);&quot;&gt;grid&lt;br&gt;&lt;/span&gt;&lt;/font&gt;&lt;font face=&quot;Consolas, Courier New, monospace&quot; color=&quot;#9cdcfe&quot;&gt;&lt;span style=&quot;font-size: 14px; background-color: rgb(31, 31, 31);&quot;&gt;j++&lt;br&gt;&lt;/span&gt;&lt;/font&gt;" style="rounded=1;whiteSpace=wrap;html=1;" parent="1" vertex="1">
                    <mxGeometry x="135.01" y="160" width="235" height="40" as="geometry"/>
                </mxCell>
                <mxCell id="c0LL561WGBZYWOj5mWlu-6" value="" style="edgeStyle=none;html=1;entryX=1;entryY=0.5;entryDx=0;entryDy=0;" parent="1" source="c0LL561WGBZYWOj5mWlu-4" target="3" edge="1">
                    <mxGeometry x="-0.0028" relative="1" as="geometry">
                        <mxPoint x="330" y="245" as="targetPoint"/>
                        <Array as="points">
                            <mxPoint x="400" y="230"/>
                        </Array>
                        <mxPoint as="offset"/>
                    </mxGeometry>
                </mxCell>
                <mxCell id="bFVvXtpgS0MSezCc4s9v-18" value="Y" style="edgeLabel;html=1;align=center;verticalAlign=middle;resizable=0;points=[];" parent="c0LL561WGBZYWOj5mWlu-6" vertex="1" connectable="0">
                    <mxGeometry x="-0.7128" relative="1" as="geometry">
                        <mxPoint as="offset"/>
                    </mxGeometry>
                </mxCell>
                <mxCell id="EZAyhClGzNnqPIjBJOYZ-5" style="edgeStyle=none;html=1;exitX=0.5;exitY=1;exitDx=0;exitDy=0;entryX=0.5;entryY=0;entryDx=0;entryDy=0;" parent="1" source="c0LL561WGBZYWOj5mWlu-4" target="bFVvXtpgS0MSezCc4s9v-10" edge="1">
                    <mxGeometry relative="1" as="geometry">
                        <mxPoint x="-210" y="403" as="targetPoint"/>
                    </mxGeometry>
                </mxCell>
                <mxCell id="EZAyhClGzNnqPIjBJOYZ-6" value="N" style="edgeLabel;html=1;align=center;verticalAlign=middle;resizable=0;points=[];" parent="EZAyhClGzNnqPIjBJOYZ-5" vertex="1" connectable="0">
                    <mxGeometry x="-0.3103" y="1" relative="1" as="geometry">
                        <mxPoint as="offset"/>
                    </mxGeometry>
                </mxCell>
                <mxCell id="c0LL561WGBZYWOj5mWlu-4" value="j &amp;lt; c" style="rhombus;whiteSpace=wrap;html=1;rounded=1;" parent="1" vertex="1">
                    <mxGeometry x="212.51" y="220" width="80" height="50" as="geometry"/>
                </mxCell>
                <mxCell id="JW_lKBwu5eOluAX50DHN-5" value="" style="edgeStyle=none;html=1;" parent="1" source="c0LL561WGBZYWOj5mWlu-7" target="JW_lKBwu5eOluAX50DHN-4" edge="1">
                    <mxGeometry relative="1" as="geometry"/>
                </mxCell>
                <mxCell id="c0LL561WGBZYWOj5mWlu-7" value="&lt;a href=&quot;data:page/id,exw0cJiojUcFZKTGELBG&quot;&gt;bfs to reach empty coords&lt;/a&gt;" style="whiteSpace=wrap;html=1;rounded=1;" parent="1" vertex="1">
                    <mxGeometry x="550" y="410" width="177.5" height="40" as="geometry"/>
                </mxCell>
                <mxCell id="JW_lKBwu5eOluAX50DHN-7" value="" style="edgeStyle=none;html=1;" parent="1" source="JW_lKBwu5eOluAX50DHN-4" target="JW_lKBwu5eOluAX50DHN-6" edge="1">
                    <mxGeometry relative="1" as="geometry"/>
                </mxCell>
                <mxCell id="JW_lKBwu5eOluAX50DHN-4" value="print shortest path to each empty" style="whiteSpace=wrap;html=1;rounded=1;" parent="1" vertex="1">
                    <mxGeometry x="540.62" y="265" width="196.25" height="40" as="geometry"/>
                </mxCell>
                <mxCell id="JW_lKBwu5eOluAX50DHN-6" value="end" style="ellipse;whiteSpace=wrap;html=1;" parent="1" vertex="1">
                    <mxGeometry x="618.75" y="180" width="40" height="20" as="geometry"/>
                </mxCell>
                <mxCell id="EZAyhClGzNnqPIjBJOYZ-7" value="" style="edgeStyle=none;html=1;" parent="1" source="EZAyhClGzNnqPIjBJOYZ-4" target="c0LL561WGBZYWOj5mWlu-7" edge="1">
                    <mxGeometry relative="1" as="geometry"/>
                </mxCell>
                <mxCell id="EZAyhClGzNnqPIjBJOYZ-4" value="&lt;font color=&quot;#9cdcfe&quot; face=&quot;Consolas, Courier New, monospace&quot;&gt;&lt;span style=&quot;font-size: 14px; background-color: rgb(31, 31, 31);&quot;&gt;&lt;a href=&quot;data:page/id,GhlacwPBTZWq6XCJ96uC&quot;&gt;call func check_coord(unsafe, empty)&lt;/a&gt;&lt;br&gt;&lt;/span&gt;&lt;/font&gt;&lt;span style=&quot;color: rgb(156, 220, 254); font-family: Consolas, &amp;quot;Courier New&amp;quot;, monospace; font-size: 14px; background-color: rgb(31, 31, 31);&quot;&gt;pair&amp;lt;int, int&amp;gt;[] empty = (calc empty)&lt;br&gt;&lt;/span&gt;&lt;span style=&quot;color: rgb(156, 220, 254); font-family: Consolas, &amp;quot;Courier New&amp;quot;, monospace; font-size: 14px; background-color: rgb(31, 31, 31);&quot;&gt;pair&amp;lt;int, int&amp;gt;[] unsafe = (calc unsafe)&lt;br&gt;&lt;/span&gt;init map&amp;lt;pii, int&amp;gt;&amp;nbsp;&lt;font color=&quot;#9cdcfe&quot; face=&quot;Consolas, Courier New, monospace&quot;&gt;&lt;span style=&quot;font-size: 14px; background-color: rgb(31, 31, 31);&quot;&gt;steps&lt;br&gt;&lt;/span&gt;&lt;/font&gt;" style="rounded=1;whiteSpace=wrap;html=1;" parent="1" vertex="1">
                    <mxGeometry x="45" y="385" width="415" height="75" as="geometry"/>
                </mxCell>
                <mxCell id="bFVvXtpgS0MSezCc4s9v-7" value="" style="edgeStyle=none;html=1;" parent="1" source="bFVvXtpgS0MSezCc4s9v-4" edge="1">
                    <mxGeometry relative="1" as="geometry">
                        <mxPoint x="252.5" y="130" as="targetPoint"/>
                    </mxGeometry>
                </mxCell>
                <mxCell id="bFVvXtpgS0MSezCc4s9v-4" value="&lt;span style=&quot;color: rgb(156, 220, 254); font-family: Consolas, &amp;quot;Courier New&amp;quot;, monospace; font-size: 14px; background-color: rgb(31, 31, 31);&quot;&gt;pair&amp;lt;int, int&amp;gt;[] unsafe&amp;nbsp;&lt;/span&gt;&lt;font face=&quot;Consolas, Courier New, monospace&quot; color=&quot;#9cdcfe&quot;&gt;&lt;span style=&quot;font-size: 14px; background-color: rgb(31, 31, 31);&quot;&gt;&lt;br&gt;r = &lt;/span&gt;&lt;/font&gt;(read&amp;nbsp;# of rows)&lt;br&gt;&lt;font face=&quot;Consolas, Courier New, monospace&quot; color=&quot;#9cdcfe&quot;&gt;&lt;span style=&quot;font-size: 14px; background-color: rgb(31, 31, 31);&quot;&gt;c =&amp;nbsp;&lt;/span&gt;&lt;/font&gt;(read&amp;nbsp;# of cols)&lt;br&gt;init char[][]&amp;nbsp;&lt;font face=&quot;Consolas, Courier New, monospace&quot; color=&quot;#9cdcfe&quot;&gt;&lt;span style=&quot;font-size: 14px; background-color: rgb(31, 31, 31);&quot;&gt;grid&lt;br&gt;i = 0, j = 0&lt;br&gt;&lt;/span&gt;&lt;/font&gt;" style="rounded=1;whiteSpace=wrap;html=1;" parent="1" vertex="1">
                    <mxGeometry x="135" y="60" width="235" height="80" as="geometry"/>
                </mxCell>
                <mxCell id="bFVvXtpgS0MSezCc4s9v-9" style="edgeStyle=none;html=1;entryX=0.5;entryY=0;entryDx=0;entryDy=0;exitX=0.5;exitY=1;exitDx=0;exitDy=0;" parent="1" source="bFVvXtpgS0MSezCc4s9v-4" target="3" edge="1">
                    <mxGeometry relative="1" as="geometry">
                        <mxPoint x="260" y="140" as="sourcePoint"/>
                    </mxGeometry>
                </mxCell>
                <mxCell id="bFVvXtpgS0MSezCc4s9v-11" value="" style="edgeStyle=none;html=1;" parent="1" source="bFVvXtpgS0MSezCc4s9v-10" target="EZAyhClGzNnqPIjBJOYZ-4" edge="1">
                    <mxGeometry relative="1" as="geometry"/>
                </mxCell>
                <mxCell id="bFVvXtpgS0MSezCc4s9v-12" value="N" style="edgeLabel;html=1;align=center;verticalAlign=middle;resizable=0;points=[];" parent="bFVvXtpgS0MSezCc4s9v-11" vertex="1" connectable="0">
                    <mxGeometry x="-0.3731" y="-2" relative="1" as="geometry">
                        <mxPoint as="offset"/>
                    </mxGeometry>
                </mxCell>
                <mxCell id="bFVvXtpgS0MSezCc4s9v-15" value="Y" style="edgeStyle=none;html=1;exitX=1;exitY=0.5;exitDx=0;exitDy=0;entryX=0;entryY=0.5;entryDx=0;entryDy=0;" parent="1" source="bFVvXtpgS0MSezCc4s9v-10" target="bFVvXtpgS0MSezCc4s9v-14" edge="1">
                    <mxGeometry relative="1" as="geometry"/>
                </mxCell>
                <mxCell id="bFVvXtpgS0MSezCc4s9v-10" value="i &amp;lt; r" style="rhombus;whiteSpace=wrap;html=1;rounded=1;" parent="1" vertex="1">
                    <mxGeometry x="212.5" y="300" width="80" height="50" as="geometry"/>
                </mxCell>
                <mxCell id="bFVvXtpgS0MSezCc4s9v-16" style="edgeStyle=none;html=1;exitX=0.5;exitY=0;exitDx=0;exitDy=0;entryX=1;entryY=0.5;entryDx=0;entryDy=0;" parent="1" source="bFVvXtpgS0MSezCc4s9v-14" target="3" edge="1">
                    <mxGeometry relative="1" as="geometry">
                        <Array as="points">
                            <mxPoint x="455" y="185"/>
                        </Array>
                    </mxGeometry>
                </mxCell>
                <mxCell id="bFVvXtpgS0MSezCc4s9v-14" value="&lt;font face=&quot;Consolas, Courier New, monospace&quot; color=&quot;#9cdcfe&quot;&gt;&lt;span style=&quot;font-size: 14px; background-color: rgb(31, 31, 31);&quot;&gt;j = 0&lt;br&gt;i++&lt;br&gt;&lt;/span&gt;&lt;/font&gt;" style="rounded=1;whiteSpace=wrap;html=1;" parent="1" vertex="1">
                    <mxGeometry x="425" y="305" width="60" height="40" as="geometry"/>
                </mxCell>
            </root>
        </mxGraphModel>
    </diagram>
    <diagram id="GhlacwPBTZWq6XCJ96uC" name="check coord">
        <mxGraphModel dx="969" dy="568" grid="1" gridSize="10" guides="1" tooltips="1" connect="1" arrows="1" fold="1" page="1" pageScale="1" pageWidth="850" pageHeight="1100" math="0" shadow="0">
            <root>
                <mxCell id="0"/>
                <mxCell id="1" parent="0"/>
                <mxCell id="FOW-EBMWewuLn3I29Yfm-2" value="N" style="edgeStyle=none;html=1;" parent="1" source="8Vcagk4aHcEJYm22lxQZ-2" target="FOW-EBMWewuLn3I29Yfm-1" edge="1">
                    <mxGeometry relative="1" as="geometry"/>
                </mxCell>
                <mxCell id="hkERN0Vq4kCe3dHId_bR-1" value="Y" style="edgeStyle=none;html=1;exitX=0.5;exitY=1;exitDx=0;exitDy=0;entryX=0.5;entryY=0;entryDx=0;entryDy=0;" parent="1" source="8Vcagk4aHcEJYm22lxQZ-2" target="SlpndpZCIre6hzSaFk6_-1" edge="1">
                    <mxGeometry relative="1" as="geometry"/>
                </mxCell>
                <mxCell id="8Vcagk4aHcEJYm22lxQZ-2" value="cur == ." style="rhombus;whiteSpace=wrap;html=1;" parent="1" vertex="1">
                    <mxGeometry x="320" y="165" width="90" height="50" as="geometry"/>
                </mxCell>
                <mxCell id="FOW-EBMWewuLn3I29Yfm-4" value="N" style="edgeStyle=none;html=1;" parent="1" source="FOW-EBMWewuLn3I29Yfm-1" target="FOW-EBMWewuLn3I29Yfm-3" edge="1">
                    <mxGeometry relative="1" as="geometry"/>
                </mxCell>
                <mxCell id="Uf5_s7yuBNhtxGD5x9IY-12" value="Y" style="edgeStyle=none;html=1;exitX=0.5;exitY=1;exitDx=0;exitDy=0;entryX=0.5;entryY=0;entryDx=0;entryDy=0;" parent="1" source="FOW-EBMWewuLn3I29Yfm-1" target="bzgRXWoDanG2AZp90ZtX-1" edge="1">
                    <mxGeometry relative="1" as="geometry">
                        <mxPoint x="475" y="555" as="targetPoint"/>
                    </mxGeometry>
                </mxCell>
                <mxCell id="FOW-EBMWewuLn3I29Yfm-1" value="cur == W" style="rhombus;whiteSpace=wrap;html=1;" parent="1" vertex="1">
                    <mxGeometry x="460" y="165" width="110" height="50" as="geometry"/>
                </mxCell>
                <mxCell id="Uf5_s7yuBNhtxGD5x9IY-13" style="edgeStyle=none;html=1;exitX=0.5;exitY=0;exitDx=0;exitDy=0;entryX=0;entryY=0.5;entryDx=0;entryDy=0;" parent="1" source="FOW-EBMWewuLn3I29Yfm-3" target="exBWjelymWXLfL3_rE9I-6" edge="1">
                    <mxGeometry relative="1" as="geometry">
                        <Array as="points">
                            <mxPoint x="675" y="195"/>
                            <mxPoint x="675" y="30"/>
                            <mxPoint x="130" y="30"/>
                            <mxPoint x="130" y="575"/>
                        </Array>
                    </mxGeometry>
                </mxCell>
                <mxCell id="Uf5_s7yuBNhtxGD5x9IY-14" value="Y" style="edgeLabel;html=1;align=center;verticalAlign=middle;resizable=0;points=[];" parent="Uf5_s7yuBNhtxGD5x9IY-13" vertex="1" connectable="0">
                    <mxGeometry x="-0.6428" relative="1" as="geometry">
                        <mxPoint as="offset"/>
                    </mxGeometry>
                </mxCell>
                <mxCell id="PkFUEvDOMp-l3oNmthMz-3" value="N" style="edgeStyle=none;html=1;" parent="1" source="FOW-EBMWewuLn3I29Yfm-3" target="FOW-EBMWewuLn3I29Yfm-5" edge="1">
                    <mxGeometry relative="1" as="geometry"/>
                </mxCell>
                <mxCell id="FOW-EBMWewuLn3I29Yfm-3" value="cur == C" style="rhombus;whiteSpace=wrap;html=1;" parent="1" vertex="1">
                    <mxGeometry x="620" y="165" width="110" height="50" as="geometry"/>
                </mxCell>
                <mxCell id="Cxug61EuzjkWPXLp35lS-4" value="Y" style="edgeStyle=none;html=1;entryX=1;entryY=0.5;entryDx=0;entryDy=0;exitX=0.5;exitY=1;exitDx=0;exitDy=0;" parent="1" target="bzgRXWoDanG2AZp90ZtX-1" edge="1">
                    <mxGeometry relative="1" as="geometry">
                        <mxPoint x="675" y="245" as="sourcePoint"/>
                        <mxPoint x="530" y="525" as="targetPoint"/>
                        <Array as="points">
                            <mxPoint x="675" y="525"/>
                        </Array>
                    </mxGeometry>
                </mxCell>
                <mxCell id="FOW-EBMWewuLn3I29Yfm-5" value="cur == L/R/U/D" style="rhombus;whiteSpace=wrap;html=1;" parent="1" vertex="1">
                    <mxGeometry x="600" y="245" width="150" height="50" as="geometry"/>
                </mxCell>
                <mxCell id="Cxug61EuzjkWPXLp35lS-9" value="N" style="edgeStyle=none;html=1;" parent="1" source="Cxug61EuzjkWPXLp35lS-6" target="Cxug61EuzjkWPXLp35lS-8" edge="1">
                    <mxGeometry relative="1" as="geometry"/>
                </mxCell>
                <mxCell id="Uf5_s7yuBNhtxGD5x9IY-6" style="edgeStyle=none;html=1;exitX=0;exitY=0.5;exitDx=0;exitDy=0;entryX=0;entryY=0.5;entryDx=0;entryDy=0;" parent="1" source="Cxug61EuzjkWPXLp35lS-6" target="exBWjelymWXLfL3_rE9I-6" edge="1">
                    <mxGeometry relative="1" as="geometry">
                        <Array as="points">
                            <mxPoint x="130" y="310"/>
                            <mxPoint x="130" y="525"/>
                        </Array>
                    </mxGeometry>
                </mxCell>
                <mxCell id="Uf5_s7yuBNhtxGD5x9IY-8" value="Y" style="edgeLabel;html=1;align=center;verticalAlign=middle;resizable=0;points=[];" parent="Uf5_s7yuBNhtxGD5x9IY-6" vertex="1" connectable="0">
                    <mxGeometry x="-0.7216" y="1" relative="1" as="geometry">
                        <mxPoint as="offset"/>
                    </mxGeometry>
                </mxCell>
                <mxCell id="Cxug61EuzjkWPXLp35lS-6" value="adj coord == C" style="rhombus;whiteSpace=wrap;html=1;" parent="1" vertex="1">
                    <mxGeometry x="310" y="285" width="110" height="50" as="geometry"/>
                </mxCell>
                <mxCell id="exBWjelymWXLfL3_rE9I-3" value="" style="edgeStyle=none;html=1;" parent="1" source="Cxug61EuzjkWPXLp35lS-8" target="exBWjelymWXLfL3_rE9I-2" edge="1">
                    <mxGeometry relative="1" as="geometry"/>
                </mxCell>
                <mxCell id="exBWjelymWXLfL3_rE9I-4" value="Y" style="edgeLabel;html=1;align=center;verticalAlign=middle;resizable=0;points=[];" parent="exBWjelymWXLfL3_rE9I-3" vertex="1" connectable="0">
                    <mxGeometry x="-0.425" relative="1" as="geometry">
                        <mxPoint as="offset"/>
                    </mxGeometry>
                </mxCell>
                <mxCell id="Uf5_s7yuBNhtxGD5x9IY-10" style="edgeStyle=none;html=1;exitX=0.5;exitY=1;exitDx=0;exitDy=0;entryX=0;entryY=0.5;entryDx=0;entryDy=0;" parent="1" source="Cxug61EuzjkWPXLp35lS-8" target="bzgRXWoDanG2AZp90ZtX-1" edge="1">
                    <mxGeometry relative="1" as="geometry">
                        <mxPoint x="420" y="525" as="targetPoint"/>
                    </mxGeometry>
                </mxCell>
                <mxCell id="Uf5_s7yuBNhtxGD5x9IY-11" value="N" style="edgeLabel;html=1;align=center;verticalAlign=middle;resizable=0;points=[];" parent="Uf5_s7yuBNhtxGD5x9IY-10" vertex="1" connectable="0">
                    <mxGeometry x="-0.4208" relative="1" as="geometry">
                        <mxPoint as="offset"/>
                    </mxGeometry>
                </mxCell>
                <mxCell id="Cxug61EuzjkWPXLp35lS-8" value="adj coord == L/R/U/D" style="rhombus;whiteSpace=wrap;html=1;" parent="1" vertex="1">
                    <mxGeometry x="360" y="345" width="120" height="50" as="geometry"/>
                </mxCell>
                <mxCell id="Uf5_s7yuBNhtxGD5x9IY-5" value="Y" style="edgeStyle=none;html=1;" parent="1" source="exBWjelymWXLfL3_rE9I-2" target="exBWjelymWXLfL3_rE9I-6" edge="1">
                    <mxGeometry relative="1" as="geometry"/>
                </mxCell>
                <mxCell id="Uf5_s7yuBNhtxGD5x9IY-15" style="edgeStyle=none;html=1;exitX=0.5;exitY=1;exitDx=0;exitDy=0;entryX=0;entryY=0.5;entryDx=0;entryDy=0;" parent="1" source="exBWjelymWXLfL3_rE9I-2" target="bzgRXWoDanG2AZp90ZtX-1" edge="1">
                    <mxGeometry relative="1" as="geometry">
                        <mxPoint x="420" y="525" as="targetPoint"/>
                    </mxGeometry>
                </mxCell>
                <mxCell id="Uf5_s7yuBNhtxGD5x9IY-16" value="N" style="edgeLabel;html=1;align=center;verticalAlign=middle;resizable=0;points=[];" parent="Uf5_s7yuBNhtxGD5x9IY-15" vertex="1" connectable="0">
                    <mxGeometry x="-0.1958" y="-4" relative="1" as="geometry">
                        <mxPoint as="offset"/>
                    </mxGeometry>
                </mxCell>
                <mxCell id="exBWjelymWXLfL3_rE9I-2" value="adj of adj == C" style="rhombus;whiteSpace=wrap;html=1;" parent="1" vertex="1">
                    <mxGeometry x="190" y="345" width="120" height="50" as="geometry"/>
                </mxCell>
                <mxCell id="Uf5_s7yuBNhtxGD5x9IY-9" style="edgeStyle=none;html=1;exitX=1;exitY=0.5;exitDx=0;exitDy=0;entryX=0;entryY=0.5;entryDx=0;entryDy=0;" parent="1" source="exBWjelymWXLfL3_rE9I-6" target="bzgRXWoDanG2AZp90ZtX-1" edge="1">
                    <mxGeometry relative="1" as="geometry">
                        <mxPoint x="420" y="525" as="targetPoint"/>
                    </mxGeometry>
                </mxCell>
                <mxCell id="exBWjelymWXLfL3_rE9I-6" value="append cur to&amp;nbsp;&lt;span style=&quot;color: rgb(156, 220, 254); font-family: Consolas, &amp;quot;Courier New&amp;quot;, monospace; font-size: 14px; background-color: rgb(31, 31, 31);&quot;&gt;unsafe&amp;nbsp;&lt;/span&gt;" style="rounded=1;whiteSpace=wrap;html=1;" parent="1" vertex="1">
                    <mxGeometry x="195" y="505" width="110" height="40" as="geometry"/>
                </mxCell>
                <mxCell id="hkERN0Vq4kCe3dHId_bR-3" style="edgeStyle=none;html=1;exitX=0.5;exitY=1;exitDx=0;exitDy=0;entryX=0.5;entryY=0;entryDx=0;entryDy=0;" parent="1" source="SlpndpZCIre6hzSaFk6_-1" target="Cxug61EuzjkWPXLp35lS-6" edge="1">
                    <mxGeometry relative="1" as="geometry"/>
                </mxCell>
                <mxCell id="SlpndpZCIre6hzSaFk6_-1" value="append cur to&amp;nbsp;&lt;span style=&quot;color: rgb(156, 220, 254); font-family: Consolas, &amp;quot;Courier New&amp;quot;, monospace; font-size: 14px; background-color: rgb(31, 31, 31);&quot;&gt;empty&lt;/span&gt;" style="rounded=1;whiteSpace=wrap;html=1;" parent="1" vertex="1">
                    <mxGeometry x="290" y="245" width="150" height="20" as="geometry"/>
                </mxCell>
                <mxCell id="WptWVoQgSgJDhWzJ4KrU-1" value="" style="edgeStyle=none;html=1;entryX=0.5;entryY=0;entryDx=0;entryDy=0;" parent="1" source="4mv3AuAZ1rkM-hVNd8-Z-1" target="PkFUEvDOMp-l3oNmthMz-1" edge="1">
                    <mxGeometry relative="1" as="geometry"/>
                </mxCell>
                <mxCell id="4mv3AuAZ1rkM-hVNd8-Z-1" value="i = 0, j = 0" style="rounded=1;whiteSpace=wrap;html=1;" parent="1" vertex="1">
                    <mxGeometry x="290" y="70" width="150" height="20" as="geometry"/>
                </mxCell>
                <UserObject label="bfs" link="data:page/id,exw0cJiojUcFZKTGELBG" id="E22nORARi4U6tbtVc-N--3">
                    <mxCell style="fontColor=#0000EE;fontStyle=4;rounded=1;overflow=hidden;spacing=10;" parent="1" vertex="1">
                        <mxGeometry x="360" y="700" width="130" height="40" as="geometry"/>
                    </mxCell>
                </UserObject>
                <mxCell id="u6IvMaL8q_sZyNkgMck_-3" value="Y" style="edgeStyle=none;html=1;exitX=0.5;exitY=1;exitDx=0;exitDy=0;entryX=0.5;entryY=0;entryDx=0;entryDy=0;" parent="1" source="bzgRXWoDanG2AZp90ZtX-1" target="u6IvMaL8q_sZyNkgMck_-1" edge="1">
                    <mxGeometry relative="1" as="geometry"/>
                </mxCell>
                <mxCell id="O0nvntULEEidwVMk7ZFM-2" value="N" style="edgeStyle=none;html=1;exitX=0.5;exitY=1;exitDx=0;exitDy=0;entryX=0.5;entryY=0;entryDx=0;entryDy=0;" parent="1" source="bzgRXWoDanG2AZp90ZtX-1" target="O0nvntULEEidwVMk7ZFM-1" edge="1">
                    <mxGeometry relative="1" as="geometry"/>
                </mxCell>
                <mxCell id="bzgRXWoDanG2AZp90ZtX-1" value="j &amp;lt; c" style="rhombus;whiteSpace=wrap;html=1;" parent="1" vertex="1">
                    <mxGeometry x="420" y="500" width="120" height="50" as="geometry"/>
                </mxCell>
                <mxCell id="V14JUmso02onktKK-B8T-1" style="edgeStyle=none;html=1;exitX=1;exitY=0.5;exitDx=0;exitDy=0;entryX=1;entryY=0.5;entryDx=0;entryDy=0;" parent="1" source="u6IvMaL8q_sZyNkgMck_-1" target="PkFUEvDOMp-l3oNmthMz-1" edge="1">
                    <mxGeometry relative="1" as="geometry">
                        <Array as="points">
                            <mxPoint x="790" y="580"/>
                            <mxPoint x="790" y="130"/>
                        </Array>
                    </mxGeometry>
                </mxCell>
                <mxCell id="u6IvMaL8q_sZyNkgMck_-1" value="j++" style="rounded=1;whiteSpace=wrap;html=1;" parent="1" vertex="1">
                    <mxGeometry x="535" y="570" width="60" height="20" as="geometry"/>
                </mxCell>
                <mxCell id="PkFUEvDOMp-l3oNmthMz-2" value="" style="edgeStyle=none;html=1;" parent="1" source="PkFUEvDOMp-l3oNmthMz-1" target="8Vcagk4aHcEJYm22lxQZ-2" edge="1">
                    <mxGeometry relative="1" as="geometry"/>
                </mxCell>
                <mxCell id="PkFUEvDOMp-l3oNmthMz-1" value="cur = grid[i][j]" style="rounded=1;whiteSpace=wrap;html=1;" parent="1" vertex="1">
                    <mxGeometry x="290" y="120" width="150" height="20" as="geometry"/>
                </mxCell>
                <mxCell id="u8DtSAzYSopMBix8KpJR-1" value="Y" style="edgeStyle=none;html=1;exitX=1;exitY=0.5;exitDx=0;exitDy=0;entryX=0;entryY=0.5;entryDx=0;entryDy=0;" parent="1" source="O0nvntULEEidwVMk7ZFM-1" target="7hnNd4Lh2cMCEutVMPLg-1" edge="1">
                    <mxGeometry relative="1" as="geometry"/>
                </mxCell>
                <mxCell id="bmkvgk2F-zJINXcoZUZu-1" value="N" style="edgeStyle=none;html=1;exitX=0.5;exitY=1;exitDx=0;exitDy=0;entryX=0.5;entryY=0;entryDx=0;entryDy=0;" parent="1" source="O0nvntULEEidwVMk7ZFM-1" target="E22nORARi4U6tbtVc-N--3" edge="1">
                    <mxGeometry relative="1" as="geometry"/>
                </mxCell>
                <mxCell id="O0nvntULEEidwVMk7ZFM-1" value="i &amp;lt; r" style="rhombus;whiteSpace=wrap;html=1;" parent="1" vertex="1">
                    <mxGeometry x="385" y="610" width="80" height="30" as="geometry"/>
                </mxCell>
                <mxCell id="bmkvgk2F-zJINXcoZUZu-2" style="edgeStyle=none;html=1;exitX=1;exitY=0.5;exitDx=0;exitDy=0;entryX=1;entryY=0.5;entryDx=0;entryDy=0;" parent="1" source="7hnNd4Lh2cMCEutVMPLg-1" target="PkFUEvDOMp-l3oNmthMz-1" edge="1">
                    <mxGeometry relative="1" as="geometry">
                        <Array as="points">
                            <mxPoint x="790" y="625"/>
                            <mxPoint x="790" y="130"/>
                        </Array>
                    </mxGeometry>
                </mxCell>
                <mxCell id="7hnNd4Lh2cMCEutVMPLg-1" value="j = 0&lt;br&gt;i++" style="rounded=1;whiteSpace=wrap;html=1;" parent="1" vertex="1">
                    <mxGeometry x="510" y="605" width="110" height="40" as="geometry"/>
                </mxCell>
            </root>
        </mxGraphModel>
    </diagram>
    <diagram id="exw0cJiojUcFZKTGELBG" name="bfs">
        <mxGraphModel dx="969" dy="568" grid="1" gridSize="10" guides="1" tooltips="1" connect="1" arrows="1" fold="1" page="1" pageScale="1" pageWidth="850" pageHeight="1100" math="0" shadow="0">
            <root>
                <mxCell id="0"/>
                <mxCell id="1" parent="0"/>
                <mxCell id="blh4HN7pNjQ5tAmzKzGm-2" value="" style="edgeStyle=none;html=1;" parent="1" source="dP9iakNzCBk9TDKI2QXH-1" target="blh4HN7pNjQ5tAmzKzGm-1" edge="1">
                    <mxGeometry relative="1" as="geometry"/>
                </mxCell>
                <mxCell id="dP9iakNzCBk9TDKI2QXH-1" value="int &lt;font face=&quot;Consolas, Courier New, monospace&quot; color=&quot;#9cdcfe&quot;&gt;&lt;span style=&quot;font-size: 14px; background-color: rgb(31, 31, 31);&quot;&gt;n&lt;/span&gt;&lt;/font&gt;&amp;nbsp;= 1&lt;br&gt;pair&amp;lt;int, int&amp;gt; &lt;font face=&quot;Consolas, Courier New, monospace&quot; color=&quot;#9cdcfe&quot;&gt;&lt;span style=&quot;font-size: 14px; background-color: rgb(31, 31, 31);&quot;&gt;cur&amp;nbsp;&lt;/span&gt;&lt;/font&gt;= coords of &quot;S&quot;&lt;br&gt;int reached = 0&lt;br&gt;int dir = 0" style="rounded=1;whiteSpace=wrap;html=1;" parent="1" vertex="1">
                    <mxGeometry x="250" y="50" width="210" height="70" as="geometry"/>
                </mxCell>
                <mxCell id="5j1BeQkgZ4wdjkacRHqK-2" value="" style="edgeStyle=none;html=1;" parent="1" source="blh4HN7pNjQ5tAmzKzGm-1" target="5j1BeQkgZ4wdjkacRHqK-1" edge="1">
                    <mxGeometry relative="1" as="geometry"/>
                </mxCell>
                <mxCell id="blh4HN7pNjQ5tAmzKzGm-1" value="get adj coords" style="rounded=1;whiteSpace=wrap;html=1;" parent="1" vertex="1">
                    <mxGeometry x="300" y="150" width="110" height="30" as="geometry"/>
                </mxCell>
                <mxCell id="2-PfPxsg815WPT5x_MC0-2" value="N" style="edgeStyle=none;html=1;" parent="1" source="5j1BeQkgZ4wdjkacRHqK-1" target="2-PfPxsg815WPT5x_MC0-1" edge="1">
                    <mxGeometry relative="1" as="geometry"/>
                </mxCell>
                <mxCell id="MqLmK13QIkDrJj-OIAb3-1" style="edgeStyle=none;html=1;exitX=0.074;exitY=0.527;exitDx=0;exitDy=0;entryX=1;entryY=0.5;entryDx=0;entryDy=0;exitPerimeter=0;" parent="1" source="5j1BeQkgZ4wdjkacRHqK-1" target="1OblNu7V59Gssfzf7GvD-7" edge="1">
                    <mxGeometry relative="1" as="geometry">
                        <Array as="points"/>
                    </mxGeometry>
                </mxCell>
                <mxCell id="MqLmK13QIkDrJj-OIAb3-2" value="Y" style="edgeLabel;html=1;align=center;verticalAlign=middle;resizable=0;points=[];" parent="MqLmK13QIkDrJj-OIAb3-1" vertex="1" connectable="0">
                    <mxGeometry x="-0.6999" y="-2" relative="1" as="geometry">
                        <mxPoint as="offset"/>
                    </mxGeometry>
                </mxCell>
                <mxCell id="5j1BeQkgZ4wdjkacRHqK-1" value="coord in&amp;nbsp;&lt;span style=&quot;color: rgb(156, 220, 254); font-family: Consolas, &amp;quot;Courier New&amp;quot;, monospace; font-size: 14px; background-color: rgb(31, 31, 31);&quot;&gt;unsafe&amp;nbsp;&lt;/span&gt;" style="rhombus;whiteSpace=wrap;html=1;rounded=1;" parent="1" vertex="1">
                    <mxGeometry x="285" y="210" width="140" height="50" as="geometry"/>
                </mxCell>
                <mxCell id="-F3fgQzvmbLC4suV0fJG-3" value="" style="edgeStyle=none;html=1;" parent="1" source="2-PfPxsg815WPT5x_MC0-1" target="-F3fgQzvmbLC4suV0fJG-2" edge="1">
                    <mxGeometry relative="1" as="geometry"/>
                </mxCell>
                <mxCell id="2-PfPxsg815WPT5x_MC0-1" value="&lt;span style=&quot;color: rgb(156, 220, 254); font-family: Consolas, &amp;quot;Courier New&amp;quot;, monospace; font-size: 14px; background-color: rgb(31, 31, 31);&quot;&gt;cur&lt;/span&gt;&amp;nbsp;= coord&lt;br&gt;dir = 0" style="whiteSpace=wrap;html=1;rounded=1;" parent="1" vertex="1">
                    <mxGeometry x="307.5" y="300" width="95" height="35" as="geometry"/>
                </mxCell>
                <mxCell id="-F3fgQzvmbLC4suV0fJG-8" value="Y" style="edgeStyle=none;html=1;" parent="1" source="-F3fgQzvmbLC4suV0fJG-2" target="-F3fgQzvmbLC4suV0fJG-7" edge="1">
                    <mxGeometry relative="1" as="geometry"/>
                </mxCell>
                <mxCell id="G9wV8OoobyUapjJJTP22-2" style="edgeStyle=none;html=1;exitX=0.955;exitY=0.473;exitDx=0;exitDy=0;entryX=0.5;entryY=1;entryDx=0;entryDy=0;exitPerimeter=0;" parent="1" source="-F3fgQzvmbLC4suV0fJG-2" target="1OblNu7V59Gssfzf7GvD-1" edge="1">
                    <mxGeometry relative="1" as="geometry"/>
                </mxCell>
                <mxCell id="G9wV8OoobyUapjJJTP22-4" value="N" style="edgeLabel;html=1;align=center;verticalAlign=middle;resizable=0;points=[];" parent="G9wV8OoobyUapjJJTP22-2" vertex="1" connectable="0">
                    <mxGeometry x="-0.403" y="-3" relative="1" as="geometry">
                        <mxPoint as="offset"/>
                    </mxGeometry>
                </mxCell>
                <mxCell id="-F3fgQzvmbLC4suV0fJG-2" value="cur == ." style="rhombus;whiteSpace=wrap;html=1;rounded=1;" parent="1" vertex="1">
                    <mxGeometry x="285" y="370" width="140" height="50" as="geometry"/>
                </mxCell>
                <mxCell id="5suyQva4t8-gxuQCistN-3" style="edgeStyle=none;html=1;exitX=1;exitY=0.5;exitDx=0;exitDy=0;entryX=0.5;entryY=1;entryDx=0;entryDy=0;" parent="1" source="-F3fgQzvmbLC4suV0fJG-7" target="1OblNu7V59Gssfzf7GvD-1" edge="1">
                    <mxGeometry relative="1" as="geometry">
                        <mxPoint x="660" y="450" as="targetPoint"/>
                        <Array as="points">
                            <mxPoint x="530" y="465"/>
                        </Array>
                    </mxGeometry>
                </mxCell>
                <mxCell id="-F3fgQzvmbLC4suV0fJG-7" value="steps[cur] = n&lt;br&gt;reached++" style="rounded=1;whiteSpace=wrap;html=1;" parent="1" vertex="1">
                    <mxGeometry x="295" y="450" width="120" height="40" as="geometry"/>
                </mxCell>
                <mxCell id="5suyQva4t8-gxuQCistN-6" value="N" style="edgeStyle=none;html=1;" parent="1" source="5suyQva4t8-gxuQCistN-5" target="blh4HN7pNjQ5tAmzKzGm-1" edge="1">
                    <mxGeometry relative="1" as="geometry"/>
                </mxCell>
                <mxCell id="5suyQva4t8-gxuQCistN-10" value="Y" style="edgeStyle=none;html=1;" parent="1" source="5suyQva4t8-gxuQCistN-5" target="5suyQva4t8-gxuQCistN-9" edge="1">
                    <mxGeometry relative="1" as="geometry"/>
                </mxCell>
                <mxCell id="5suyQva4t8-gxuQCistN-5" value="reached = empty.size()" style="rhombus;whiteSpace=wrap;html=1;rounded=1;" parent="1" vertex="1">
                    <mxGeometry x="450" y="140" width="160" height="50" as="geometry"/>
                </mxCell>
                <UserObject label="main" link="data:page/id,UPTW6S9dqHJcLNoozvrJ" id="5suyQva4t8-gxuQCistN-9">
                    <mxCell style="fontColor=#0000EE;fontStyle=4;rounded=1;overflow=hidden;spacing=10;" parent="1" vertex="1">
                        <mxGeometry x="660" y="145" width="70" height="40" as="geometry"/>
                    </mxCell>
                </UserObject>
                <mxCell id="1OblNu7V59Gssfzf7GvD-3" style="edgeStyle=none;html=1;exitX=0.5;exitY=0;exitDx=0;exitDy=0;entryX=0.5;entryY=1;entryDx=0;entryDy=0;" parent="1" source="1OblNu7V59Gssfzf7GvD-1" target="5suyQva4t8-gxuQCistN-5" edge="1">
                    <mxGeometry relative="1" as="geometry"/>
                </mxCell>
                <mxCell id="1OblNu7V59Gssfzf7GvD-1" value="&lt;font face=&quot;Consolas, Courier New, monospace&quot; color=&quot;#9cdcfe&quot;&gt;&lt;span style=&quot;font-size: 14px; background-color: rgb(31, 31, 31);&quot;&gt;n++&lt;/span&gt;&lt;/font&gt;" style="whiteSpace=wrap;html=1;rounded=1;" parent="1" vertex="1">
                    <mxGeometry x="482.5" y="260" width="95" height="35" as="geometry"/>
                </mxCell>
                <mxCell id="1OblNu7V59Gssfzf7GvD-8" value="N" style="edgeStyle=none;html=1;exitX=0.5;exitY=0;exitDx=0;exitDy=0;entryX=0;entryY=0.5;entryDx=0;entryDy=0;" parent="1" source="1OblNu7V59Gssfzf7GvD-7" target="blh4HN7pNjQ5tAmzKzGm-1" edge="1">
                    <mxGeometry relative="1" as="geometry"/>
                </mxCell>
                <mxCell id="1OblNu7V59Gssfzf7GvD-9" style="edgeStyle=none;html=1;exitX=0.5;exitY=1;exitDx=0;exitDy=0;entryX=0.5;entryY=0;entryDx=0;entryDy=0;" parent="1" source="1OblNu7V59Gssfzf7GvD-7" target="1OblNu7V59Gssfzf7GvD-11" edge="1">
                    <mxGeometry relative="1" as="geometry">
                        <Array as="points"/>
                    </mxGeometry>
                </mxCell>
                <mxCell id="1OblNu7V59Gssfzf7GvD-10" value="Y" style="edgeLabel;html=1;align=center;verticalAlign=middle;resizable=0;points=[];" parent="1OblNu7V59Gssfzf7GvD-9" vertex="1" connectable="0">
                    <mxGeometry x="-0.8719" y="-1" relative="1" as="geometry">
                        <mxPoint as="offset"/>
                    </mxGeometry>
                </mxCell>
                <mxCell id="1OblNu7V59Gssfzf7GvD-7" value="all adj checked" style="rhombus;whiteSpace=wrap;html=1;rounded=1;" parent="1" vertex="1">
                    <mxGeometry x="90" y="190" width="140" height="50" as="geometry"/>
                </mxCell>
                <mxCell id="1OblNu7V59Gssfzf7GvD-12" style="edgeStyle=none;html=1;exitX=0.5;exitY=1;exitDx=0;exitDy=0;entryX=0.5;entryY=1;entryDx=0;entryDy=0;" parent="1" source="1OblNu7V59Gssfzf7GvD-11" target="5suyQva4t8-gxuQCistN-9" edge="1">
                    <mxGeometry relative="1" as="geometry">
                        <Array as="points">
                            <mxPoint x="160" y="510"/>
                            <mxPoint x="695" y="510"/>
                        </Array>
                    </mxGeometry>
                </mxCell>
                <mxCell id="1OblNu7V59Gssfzf7GvD-11" value="steps[cur] = -1" style="rounded=1;whiteSpace=wrap;html=1;" parent="1" vertex="1">
                    <mxGeometry x="105" y="340" width="110" height="30" as="geometry"/>
                </mxCell>
            </root>
        </mxGraphModel>
    </diagram>
</mxfile>